<?xml version="1.0" encoding="utf-8"?>
<!-- Generator: Adobe Illustrator 21.0.0, SVG Export Plug-In . SVG Version: 6.00 Build 0)  -->
<svg version="1.1" id="圖層_1" xmlns="http://www.w3.org/2000/svg" xmlns:xlink="http://www.w3.org/1999/xlink" x="0px" y="0px"
	 viewBox="0 0 229.7 50.8" style="enable-background:new 0 0 229.7 50.8;" xml:space="preserve">
<style type="text/css">
	.st0{fill:#CBCBCB;}
	.st1{fill:none;}
	.st2{fill:#1A93C9;stroke:#1A93C9;stroke-width:0.25;stroke-linecap:round;stroke-linejoin:round;stroke-miterlimit:10;}
	.st3{fill:#CB7A3C;stroke:#CB7A3C;stroke-width:0.25;stroke-linecap:round;stroke-linejoin:round;stroke-miterlimit:10;}
	.st4{fill:#040000;}
	.st5{fill:#1A93C9;}
</style>
<g>
	<g>
		<path class="st0" d="M48,25.3c0-0.2,0-0.5,0.1-0.7l-19.6-0.3v0c-0.2,12.6,9.9,23,22.5,23.3c0.1,0,0.2,0,0.3,0V28.1
			c-0.1,0-0.3,0-0.4,0C49.2,28.2,48,26.9,48,25.3z"/>
		<path class="st1" d="M59.3,24.8c-0.1,4.4-3.8,8-8.2,7.9c-4.4-0.1-8-3.8-7.9-8.2l0,0l-2.3,0l0,0c-0.1,5.7,4.5,10.5,10.2,10.6
			s10.5-4.5,10.6-10.2l0,0L59.3,24.8L59.3,24.8z"/>
		<path class="st1" d="M63.5,24.9c-0.1,6.7-5.7,12.1-12.4,12c-6.7-0.1-12.1-5.7-12-12.4v0l-2.3,0v0c-0.1,8,6.3,14.6,14.3,14.8
			C59,39.4,65.7,33,65.8,25v0L63.5,24.9L63.5,24.9z"/>
		<path class="st1" d="M67.7,25C67.5,34,60,41.3,51,41.1s-16.3-7.6-16.1-16.7c0,0,0,0,0,0l-2.3,0l0,0c-0.2,10.3,8.1,18.8,18.4,19
			S69.8,35.3,70,25v0L67.7,25L67.7,25z"/>
		<path class="st1" d="M45.1,24.6c-0.1,3.4,2.7,6.3,6.1,6.3c3.4,0.1,6.3-2.7,6.3-6.1v0L45.1,24.6L45.1,24.6z"/>
		<path class="st2" d="M50.9,45.3c11.3,0.2,20.7-8.9,20.9-20.2v0L70,25v0c-0.2,10.3-8.7,18.6-19,18.4s-18.6-8.7-18.4-19l0,0l-1.9,0
			l0,0C30.5,35.7,39.6,45.1,50.9,45.3z"/>
		<path class="st2" d="M51,41.1C60,41.3,67.5,34,67.7,25v0l-1.9,0v0C65.7,33,59,39.4,51,39.2c-8-0.1-14.4-6.8-14.3-14.8v0l-1.9,0
			c0,0,0,0,0,0C34.7,33.5,41.9,40.9,51,41.1z"/>
		<path class="st2" d="M51.1,36.9c6.7,0.1,12.3-5.3,12.4-12v0l-1.9,0l0,0c-0.1,5.7-4.8,10.3-10.6,10.2s-10.3-4.8-10.2-10.6l0,0
			l-1.9,0v0C38.9,31.2,44.3,36.8,51.1,36.9z"/>
		<path class="st2" d="M51.1,32.8c4.4,0.1,8.1-3.5,8.2-7.9v0l-1.9,0v0c-0.1,3.4-2.9,6.2-6.3,6.1c-3.4-0.1-6.2-2.9-6.1-6.3v0l-1.9,0
			l0,0C43.1,29,46.7,32.7,51.1,32.8z"/>
		<path class="st3" d="M30.7,24.6c0,11.3,9.2,20.6,20.6,20.6v-1.9c-10.3,0-18.7-8.4-18.7-18.7S41,5.9,51.3,5.9V4
			C39.9,4,30.7,13.3,30.7,24.6z"/>
		<path class="st3" d="M34.9,24.6c0,9,7.4,16.4,16.4,16.4v-1.9c-8,0-14.5-6.5-14.5-14.5s6.5-14.5,14.5-14.5V8.2
			C42.2,8.2,34.9,15.5,34.9,24.6z"/>
		<path class="st3" d="M39,24.6c0,6.7,5.5,12.2,12.2,12.2V35c-5.7,0-10.4-4.7-10.4-10.4s4.7-10.4,10.4-10.4v-1.9
			C44.5,12.4,39,17.8,39,24.6z"/>
		<path class="st3" d="M43.2,24.6c0,4.5,3.6,8.1,8.1,8.1v-1.9c-3.4,0-6.2-2.8-6.2-6.2s2.8-6.2,6.2-6.2v-1.9
			C46.8,16.5,43.2,20.1,43.2,24.6z"/>
	</g>
	<g>
		<path class="st4" d="M26.4,39.5H4v-3.7l17.3-21.9H4.4v-3.8h22v3.7L9,35.6h17.4V39.5z"/>
		<path class="st4" d="M100.6,39.5h-4.5L79.8,16.6v22.9h-4.1V10.1h4.6l16.2,22.8V10.1h4.1V39.5z"/>
		<path class="st4" d="M123.2,39.5h-21.8V10.1h21.8v3.8h-17.8v8.6h16.1v3.9h-16.1v9.3h17.8V39.5z"/>
	</g>
	<g>
		<path class="st5" d="M126.8,39.2h-3V9.8h8.6c1.4,0,2.8,0.1,4,0.4c1.2,0.3,2.3,0.7,3.2,1.3c0.9,0.6,1.6,1.4,2.1,2.4
			c0.5,1,0.7,2.2,0.7,3.6c0,1.1-0.2,2.1-0.6,2.9c-0.4,0.9-0.9,1.7-1.6,2.3c-0.7,0.6-1.5,1.2-2.4,1.6s-1.9,0.6-3,0.7l8.6,14h-3.6
			l-8.1-13.7h-5V39.2z M126.8,22.9h5.2c2.4,0,4.3-0.4,5.6-1.3c1.3-0.9,1.9-2.2,1.9-3.9c0-1-0.2-1.8-0.5-2.4
			c-0.4-0.7-0.9-1.2-1.5-1.6c-0.6-0.4-1.4-0.7-2.3-0.9c-0.9-0.2-1.9-0.3-3-0.3h-5.3V22.9z"/>
		<path class="st5" d="M156.9,26.6c0-1.7-0.4-2.9-1.3-3.7c-0.9-0.8-2.2-1.2-3.9-1.2c-1.2,0-2.2,0.2-3.2,0.6c-1,0.4-1.8,1-2.5,1.7
			l-1.6-1.9c0.8-0.8,1.9-1.5,3.2-2c1.3-0.5,2.8-0.8,4.5-0.8c1,0,2,0.1,2.9,0.4s1.7,0.7,2.4,1.3s1.2,1.3,1.6,2.2
			c0.4,0.9,0.6,1.9,0.6,3.1v8.5c0,0.7,0,1.5,0.1,2.3c0.1,0.8,0.1,1.5,0.2,2h-2.5c-0.1-0.5-0.2-1-0.2-1.5c-0.1-0.6-0.1-1.1-0.1-1.6
			h-0.1c-0.9,1.3-1.9,2.2-3,2.8c-1.1,0.6-2.5,0.8-4,0.8c-0.7,0-1.5-0.1-2.3-0.3s-1.5-0.5-2.2-1c-0.6-0.5-1.2-1.1-1.6-1.8
			c-0.4-0.7-0.6-1.7-0.6-2.7c0-1.5,0.4-2.7,1.1-3.6c0.8-0.9,1.8-1.5,3-2c1.3-0.4,2.7-0.7,4.4-0.8c1.6-0.1,3.3-0.2,5.1-0.2V26.6z
			 M156,29.5c-1.2,0-2.3,0-3.5,0.1c-1.2,0.1-2.2,0.3-3.2,0.6c-1,0.3-1.7,0.7-2.3,1.3c-0.6,0.6-0.9,1.3-0.9,2.2
			c0,0.7,0.1,1.3,0.4,1.7c0.3,0.5,0.6,0.8,1.1,1.1s0.9,0.5,1.5,0.6c0.5,0.1,1.1,0.2,1.6,0.2c1,0,1.9-0.2,2.7-0.5
			c0.8-0.3,1.4-0.8,1.9-1.4c0.5-0.6,0.9-1.3,1.2-2.1c0.3-0.8,0.4-1.6,0.4-2.4v-1.4H156z"/>
		<path class="st5" d="M163.4,22c0-0.8-0.1-1.6-0.1-2.2h2.7c0.1,0.5,0.1,1.1,0.1,1.7c0,0.6,0,1.2,0,1.6h0.1c0.6-1.1,1.4-2.1,2.5-2.8
			s2.3-1.1,3.7-1.1c0.4,0,0.7,0,1,0c0.3,0,0.6,0.1,0.9,0.2l-0.4,2.7c-0.2-0.1-0.4-0.1-0.8-0.2c-0.4-0.1-0.8-0.1-1.2-0.1
			c-0.7,0-1.5,0.1-2.2,0.4c-0.7,0.3-1.3,0.7-1.8,1.3c-0.5,0.6-0.9,1.3-1.2,2.3c-0.3,0.9-0.5,2-0.5,3.3v9.9h-2.8V24
			C163.4,23.5,163.4,22.8,163.4,22z"/>
		<path class="st5" d="M190.2,35.9c-0.8,1.2-1.9,2.2-3.2,2.8c-1.3,0.6-2.7,1-4.1,1c-1.5,0-2.9-0.3-4.1-0.8c-1.2-0.5-2.3-1.2-3.1-2.2
			c-0.9-0.9-1.5-2-2-3.2c-0.5-1.2-0.7-2.6-0.7-4c0-1.4,0.2-2.8,0.7-4c0.5-1.2,1.2-2.3,2-3.2c0.9-0.9,1.9-1.6,3.1-2.2
			c1.2-0.5,2.6-0.8,4.1-0.8c1.4,0,2.8,0.3,4.1,1c1.3,0.6,2.4,1.6,3.2,2.9h0.1V7.8h2.8v31.3h-2.8L190.2,35.9L190.2,35.9z M175.9,29.5
			c0,1.1,0.2,2.1,0.5,3c0.3,1,0.8,1.8,1.4,2.5s1.4,1.3,2.3,1.7c0.9,0.4,1.9,0.6,3.1,0.6c1.1,0,2.1-0.2,3-0.6
			c0.9-0.4,1.7-0.9,2.4-1.6c0.7-0.7,1.2-1.5,1.6-2.5c0.4-1,0.6-2,0.6-3.1c0-1.1-0.2-2.1-0.6-3.1c-0.4-1-0.9-1.8-1.6-2.5
			c-0.7-0.7-1.5-1.3-2.4-1.7c-0.9-0.4-1.9-0.6-3-0.6c-1.2,0-2.2,0.2-3.1,0.6c-0.9,0.4-1.7,1-2.3,1.7s-1.1,1.5-1.4,2.5
			C176,27.4,175.9,28.4,175.9,29.5z"/>
		<path class="st5" d="M209.6,26.6c0-1.7-0.4-2.9-1.3-3.7c-0.9-0.8-2.2-1.2-3.9-1.2c-1.2,0-2.2,0.2-3.2,0.6c-1,0.4-1.8,1-2.5,1.7
			l-1.6-1.9c0.8-0.8,1.9-1.5,3.2-2c1.3-0.5,2.8-0.8,4.5-0.8c1,0,2,0.1,2.9,0.4c0.9,0.3,1.7,0.7,2.4,1.3c0.7,0.6,1.2,1.3,1.6,2.2
			c0.4,0.9,0.6,1.9,0.6,3.1v8.5c0,0.7,0,1.5,0.1,2.3c0.1,0.8,0.1,1.5,0.2,2H210c-0.1-0.5-0.2-1-0.2-1.5c-0.1-0.6-0.1-1.1-0.1-1.6
			h-0.1c-0.9,1.3-1.9,2.2-3,2.8c-1.1,0.6-2.5,0.8-4,0.8c-0.7,0-1.5-0.1-2.3-0.3s-1.5-0.5-2.2-1c-0.6-0.5-1.2-1.1-1.6-1.8
			c-0.4-0.7-0.6-1.7-0.6-2.7c0-1.5,0.4-2.7,1.1-3.6c0.8-0.9,1.8-1.5,3-2s2.7-0.7,4.4-0.8c1.6-0.1,3.3-0.2,5.1-0.2V26.6z M208.8,29.5
			c-1.2,0-2.3,0-3.5,0.1c-1.2,0.1-2.2,0.3-3.2,0.6c-1,0.3-1.7,0.7-2.3,1.3c-0.6,0.6-0.9,1.3-0.9,2.2c0,0.7,0.1,1.3,0.4,1.7
			c0.3,0.5,0.6,0.8,1.1,1.1c0.4,0.3,0.9,0.5,1.5,0.6c0.5,0.1,1.1,0.2,1.6,0.2c1,0,1.9-0.2,2.7-0.5c0.8-0.3,1.4-0.8,1.9-1.4
			c0.5-0.6,0.9-1.3,1.2-2.1c0.3-0.8,0.4-1.6,0.4-2.4v-1.4H208.8z"/>
		<path class="st5" d="M216.1,22c0-0.8-0.1-1.6-0.1-2.2h2.7c0.1,0.5,0.1,1.1,0.1,1.7c0,0.6,0,1.2,0,1.6h0.1c0.6-1.1,1.4-2.1,2.5-2.8
			s2.3-1.1,3.7-1.1c0.4,0,0.7,0,1,0c0.3,0,0.6,0.1,0.9,0.2l-0.4,2.7c-0.2-0.1-0.4-0.1-0.8-0.2c-0.4-0.1-0.8-0.1-1.2-0.1
			c-0.7,0-1.5,0.1-2.2,0.4c-0.7,0.3-1.3,0.7-1.8,1.3c-0.5,0.6-0.9,1.3-1.2,2.3c-0.3,0.9-0.5,2-0.5,3.3v9.9h-2.8V24
			C216.2,23.5,216.2,22.8,216.1,22z"/>
	</g>
</g>
</svg>
