<svg id="圖層_1" data-name="圖層 1" xmlns="http://www.w3.org/2000/svg" viewBox="0 0 226.24 57.99"><defs><style>.cls-1{fill:#cbcbcb;}.cls-2{fill:none;}.cls-3,.cls-5{fill:#049dd9;}.cls-3{stroke:#049dd9;}.cls-3,.cls-4{stroke-linecap:round;stroke-linejoin:round;stroke-width:0.25px;}.cls-4{fill:#d17d3b;stroke:#d17d3b;}</style></defs><title>ZONERadar</title><path class="cls-1" d="M50,29.53a3.42,3.42,0,0,1,.11-.82L26.29,28.3h0A27.81,27.81,0,0,0,53.58,56.56H54V32.92A3.36,3.36,0,0,1,50,29.53Z"/><path class="cls-2" d="M63.87,29a9.81,9.81,0,0,1-19.61-.34h0l-2.79,0h0a12.6,12.6,0,0,0,25.2.44h0l-2.79,0Z"/><path class="cls-2" d="M68.93,29a14.87,14.87,0,0,1-29.73-.52h0l-2.8,0h0a17.66,17.66,0,0,0,35.32.62h0l-2.8,0Z"/><path class="cls-2" d="M74,29.13a19.93,19.93,0,0,1-39.84-.7h0l-2.79,0h0a22.72,22.72,0,0,0,45.43.79h0l-2.79,0Z"/><path class="cls-2" d="M46.52,28.65a7.54,7.54,0,0,0,15.08.26h0l-15.08-.26Z"/><path class="cls-3" d="M53.63,53.76A25,25,0,0,0,79,29.22h0l-2.26,0h0a22.72,22.72,0,0,1-45.43-.79h0l-2.26,0h0A25,25,0,0,0,53.63,53.76Z"/><path class="cls-3" d="M53.72,48.7A20,20,0,0,0,74,29.13h0l-2.26,0h0a17.66,17.66,0,0,1-35.32-.62h0l-2.26,0h0A20,20,0,0,0,53.72,48.7Z"/><path class="cls-3" d="M53.81,43.64A14.88,14.88,0,0,0,68.93,29h0l-2.26,0h0a12.6,12.6,0,0,1-25.2-.44h0l-2.26,0h0A14.88,14.88,0,0,0,53.81,43.64Z"/><path class="cls-3" d="M53.89,38.59a9.82,9.82,0,0,0,10-9.63h0l-2.26,0h0a7.54,7.54,0,0,1-15.08-.26h0l-2.26,0h0A9.82,9.82,0,0,0,53.89,38.59Z"/><path class="cls-4" d="M29.09,28.64a25,25,0,0,0,25,25V51.36a22.72,22.72,0,0,1,0-45.44V3.66A25,25,0,0,0,29.09,28.64Z"/><path class="cls-4" d="M34.15,28.64A20,20,0,0,0,54.08,48.57V46.31a17.66,17.66,0,0,1,0-35.32V8.72A20,20,0,0,0,34.15,28.64Z"/><path class="cls-4" d="M39.21,28.64A14.88,14.88,0,0,0,54.08,43.51V41.25a12.6,12.6,0,1,1,0-25.2V13.78A14.88,14.88,0,0,0,39.21,28.64Z"/><path class="cls-4" d="M44.27,28.64a9.82,9.82,0,0,0,9.81,9.81V36.19a7.54,7.54,0,1,1,0-15.08V18.84A9.82,9.82,0,0,0,44.27,28.64Z"/><path d="M26,44.14H3.5v-3.7l17.31-21.9H3.95V14.71H26v3.66L8.58,40.27H26Z"/><path d="M107.39,44.14h-4.55L86.62,21.27V44.14H82.52V14.71H87.1L103.29,37.5V14.71h4.11Z"/><path d="M130.82,44.14H109V14.71h21.82v3.82H113.07v8.61h16.1V31h-16.1v9.26h17.75Z"/><path class="cls-5" d="M135.33,43.79h-3V14.46H141a18.27,18.27,0,0,1,4,.41,9,9,0,0,1,3.19,1.35,6.35,6.35,0,0,1,2.09,2.42,8.09,8.09,0,0,1,.75,3.65,7.18,7.18,0,0,1-2.15,5.24,7.54,7.54,0,0,1-2.36,1.55,10.27,10.27,0,0,1-3,.75l8.58,14h-3.65L140.3,30.08h-5Zm0-16.28h5.18a9.94,9.94,0,0,0,5.55-1.31A4.4,4.4,0,0,0,148,22.29a5.08,5.08,0,0,0-.54-2.44A4.41,4.41,0,0,0,146,18.23a6.8,6.8,0,0,0-2.32-.91,14.63,14.63,0,0,0-3-.29h-5.3Z"/><path class="cls-5" d="M165.4,31.24a4.88,4.88,0,0,0-1.33-3.74,5.46,5.46,0,0,0-3.85-1.23,8.32,8.32,0,0,0-3.23.62,7.73,7.73,0,0,0-2.53,1.66l-1.57-1.86a9.29,9.29,0,0,1,3.17-2,11.91,11.91,0,0,1,4.45-.79,9.65,9.65,0,0,1,2.94.44,7,7,0,0,1,2.4,1.3,5.92,5.92,0,0,1,1.62,2.2,7.7,7.7,0,0,1,.58,3.11v8.49q0,1.12.08,2.32a16.19,16.19,0,0,0,.25,2h-2.53q-.12-.7-.21-1.53a16.11,16.11,0,0,1-.08-1.62h-.08a8.17,8.17,0,0,1-3,2.8,8.86,8.86,0,0,1-4,.85,9,9,0,0,1-2.3-.31A6.41,6.41,0,0,1,154,43a5.74,5.74,0,0,1-1.62-1.83,5.44,5.44,0,0,1-.64-2.74,5.22,5.22,0,0,1,1.14-3.55,6.84,6.84,0,0,1,3-2,17.89,17.89,0,0,1,4.37-.83q2.46-.19,5.12-.19Zm-.83,2.85q-1.74,0-3.5.15a15.3,15.3,0,0,0-3.19.58,6,6,0,0,0-2.34,1.26,2.82,2.82,0,0,0-.91,2.2A3.51,3.51,0,0,0,155,40a3.22,3.22,0,0,0,1.06,1.14,4.49,4.49,0,0,0,1.47.62,7.24,7.24,0,0,0,1.64.19,6.43,6.43,0,0,0,2.65-.52A5.61,5.61,0,0,0,163.79,40,6.23,6.23,0,0,0,165,38a7.22,7.22,0,0,0,.41-2.44V34.1Z"/><path class="cls-5" d="M187.94,40.52a8,8,0,0,1-3.23,2.82,9.39,9.39,0,0,1-4.1,1,10.4,10.4,0,0,1-4.12-.79,9.38,9.38,0,0,1-3.15-2.15,9.72,9.72,0,0,1-2-3.23,11.5,11.5,0,0,1,0-8,9.72,9.72,0,0,1,2-3.23,9.39,9.39,0,0,1,3.15-2.15,10.4,10.4,0,0,1,4.12-.79,9.23,9.23,0,0,1,4.1,1,8,8,0,0,1,3.23,2.88H188V12.47h2.82V43.79H188V40.52ZM173.56,34.1a9.21,9.21,0,0,0,.5,3,7.38,7.38,0,0,0,1.43,2.49,6.51,6.51,0,0,0,2.3,1.66,7.64,7.64,0,0,0,3.11.6,7.31,7.31,0,0,0,5.34-2.24,7.41,7.41,0,0,0,1.55-2.46,8.8,8.8,0,0,0,0-6.17,7.66,7.66,0,0,0-1.55-2.49,7.16,7.16,0,0,0-2.36-1.66,7.34,7.34,0,0,0-3-.6,7.43,7.43,0,0,0-3.11.62,6.74,6.74,0,0,0-2.3,1.68,7.38,7.38,0,0,0-1.43,2.49A9.21,9.21,0,0,0,173.56,34.1Z"/><path class="cls-5" d="M207.28,31.24A4.88,4.88,0,0,0,206,27.5a5.46,5.46,0,0,0-3.85-1.23,8.32,8.32,0,0,0-3.23.62,7.73,7.73,0,0,0-2.53,1.66l-1.57-1.86a9.29,9.29,0,0,1,3.17-2,11.9,11.9,0,0,1,4.45-.79,9.65,9.65,0,0,1,2.94.44,7,7,0,0,1,2.4,1.3,5.92,5.92,0,0,1,1.62,2.2,7.7,7.7,0,0,1,.58,3.11v8.49q0,1.12.08,2.32a16.38,16.38,0,0,0,.25,2h-2.53q-.13-.7-.21-1.53a15.83,15.83,0,0,1-.08-1.62h-.08a8.17,8.17,0,0,1-3,2.8,8.87,8.87,0,0,1-4,.85A9,9,0,0,1,198,44a6.41,6.41,0,0,1-2.15-1,5.74,5.74,0,0,1-1.62-1.83,5.44,5.44,0,0,1-.64-2.74,5.22,5.22,0,0,1,1.14-3.55,6.84,6.84,0,0,1,3-2,17.92,17.92,0,0,1,4.37-.83q2.46-.19,5.12-.19Zm-.83,2.85q-1.74,0-3.5.15a15.3,15.3,0,0,0-3.19.58,6,6,0,0,0-2.34,1.26,2.82,2.82,0,0,0-.91,2.2A3.53,3.53,0,0,0,196.9,40,3.23,3.23,0,0,0,198,41.16a4.48,4.48,0,0,0,1.47.62,7.24,7.24,0,0,0,1.64.19,6.43,6.43,0,0,0,2.65-.52A5.61,5.61,0,0,0,205.66,40a6.19,6.19,0,0,0,1.2-2.05,7.23,7.23,0,0,0,.41-2.44V34.1Z"/><path class="cls-5" d="M213.83,26.64q0-1.24-.12-2.24h2.69q.08.79.13,1.74c0,.64,0,1.16,0,1.57h.08A6.71,6.71,0,0,1,219.13,25a6.79,6.79,0,0,1,3.73-1.06c.36,0,.68,0,1,0a5.29,5.29,0,0,1,.89.17l-.37,2.69a5.36,5.36,0,0,0-.83-.17,8.2,8.2,0,0,0-1.16-.08,5.75,5.75,0,0,0-2.15.41,4.61,4.61,0,0,0-1.8,1.3,6.84,6.84,0,0,0-1.24,2.27,10.28,10.28,0,0,0-.48,3.33v9.92h-2.82V28.67Q213.87,27.88,213.83,26.64Z"/></svg>